<?xml version="1.0" encoding="UTF-8" standalone="no"?>
<!DOCTYPE svg PUBLIC "-//W3C//DTD SVG 1.1//EN" "http://www.w3.org/Graphics/SVG/1.1/DTD/svg11.dtd">
<svg width="100%" height="100%" viewBox="0 0 800 800" version="1.1" xmlns="http://www.w3.org/2000/svg" xmlns:xlink="http://www.w3.org/1999/xlink" xml:space="preserve" xmlns:serif="http://www.serif.com/" style="fill-rule:evenodd;clip-rule:evenodd;stroke-linejoin:round;stroke-miterlimit:2;">
    <g>
        <path d="M641.156,239.13C639.159,237.109 636.919,235.259 634.456,233.619L631.933,233.092C630.611,232.517 629.558,231.573 628.87,230.433C624.927,228.572 620.798,227.372 616.598,226.772C612.972,226.269 610.425,222.902 610.952,219.25C611.441,215.6 614.833,213.053 618.459,213.555C622.613,214.167 626.775,215.222 630.769,216.789C631.417,213.873 631.784,210.897 631.784,207.897C631.772,201.331 630.23,194.705 626.947,188.47C623.198,181.342 617.7,175.781 611.269,171.986C605.634,168.655 599.266,166.67 592.725,166.205C592.248,172.169 590.828,178.109 588.353,183.866C586.883,187.245 582.977,188.802 579.584,187.344C576.203,185.898 574.636,181.98 576.094,178.598C578.469,173.052 579.584,167.344 579.609,161.684L579.523,159.272C579.07,151.433 576.473,143.864 572.052,137.409C567.63,130.966 561.433,125.688 553.717,122.344C548.181,119.98 542.448,118.866 536.802,118.866C525.986,118.866 515.514,123.031 507.603,130.378C509.084,135.413 509.93,140.716 509.93,146.228C509.93,149.903 506.917,152.891 503.242,152.891C499.567,152.891 496.567,149.903 496.567,146.228C496.567,140.827 495.575,135.706 493.763,130.942L493.775,130.942C490.7,122.92 485.263,116.013 478.294,111.138C471.348,106.264 462.934,103.409 453.773,103.409C445.825,103.409 438.414,105.578 432.045,109.325C426.95,112.338 422.553,116.405 419.1,121.181C425.848,130.428 429.841,141.856 429.841,154.178C429.841,157.852 426.841,160.828 423.153,160.828C419.478,160.828 416.478,157.852 416.478,154.178C416.478,143.352 412.497,133.503 405.872,125.97C398.009,116.992 386.533,111.372 373.672,111.372C364.744,111.372 356.525,114.078 349.653,118.733C342.806,123.388 337.356,129.977 334.134,137.717C332.053,142.775 330.864,148.348 330.864,154.178C330.864,157.852 327.888,160.828 324.202,160.828C320.514,160.828 317.539,157.852 317.539,154.178C317.539,148.764 318.323,143.547 319.744,138.573C314.722,136.541 309.284,135.414 303.7,135.414C300.528,135.414 297.344,135.781 294.109,136.505C284.605,138.697 276.656,143.817 270.837,150.748C266.648,155.747 263.659,161.686 262.105,168.067C275.884,168.311 289.65,173.639 300.283,184.05C302.905,186.634 302.953,190.848 300.381,193.469C297.797,196.114 293.583,196.139 290.95,193.578C282.597,185.434 271.831,181.355 261.003,181.342C259.069,181.342 257.133,181.477 255.197,181.722L255.161,181.722C246.086,182.983 237.341,187.122 230.395,194.203C222.237,202.531 218.195,213.286 218.184,224.138C218.184,230.323 219.531,236.556 222.225,242.289C224.319,246.808 227.259,251.022 231.056,254.72L231.056,254.731C235.344,258.945 240.292,262.056 245.572,264.089C248.987,265.425 250.716,269.283 249.369,272.711C248.034,276.166 244.187,277.881 240.747,276.533C233.852,273.863 227.336,269.773 221.7,264.248C219.239,261.823 217.045,259.239 215.1,256.497C210.066,263.711 207.334,272.344 207.334,281.139C207.334,287.95 208.964,294.82 212.405,301.275C216.275,308.502 221.873,314.136 228.462,317.981C233.667,321.031 239.486,322.955 245.487,323.628L245.475,323.223C245.475,319.695 245.806,316.242 246.406,312.886C247.092,309.261 250.583,306.895 254.184,307.545C257.809,308.219 260.198,311.697 259.548,315.322C259.07,317.881 258.814,320.539 258.814,323.222L258.923,326.322L259.278,329.445L259.278,329.481L259.291,329.542C262.353,350.463 280.431,366.102 301.595,366.102L304.67,365.98L304.683,365.98C314.064,365.306 322.491,361.68 329.178,356.034C333.869,352.078 337.714,347.119 340.348,341.531C341.903,338.188 345.908,336.769 349.228,338.347C352.559,339.916 353.981,343.883 352.412,347.216C349.559,353.23 345.664,358.655 340.986,363.272C343.606,371.331 348.53,378.252 354.961,383.395C362.311,389.288 371.581,392.766 381.6,392.766L384.687,392.644L384.7,392.644C391.044,392.191 396.911,390.366 402.117,387.523C401.308,383.691 400.844,379.772 400.844,375.803C400.844,367.62 402.669,359.28 406.441,351.441C408.045,348.122 412.025,346.738 415.333,348.342C418.652,349.922 420.061,353.916 418.456,357.234C415.553,363.248 414.194,369.569 414.194,375.803C414.194,380.163 414.867,384.511 416.166,388.638L416.178,388.638C419.595,399.527 427.312,409.044 438.42,414.383C444.422,417.286 450.742,418.645 456.964,418.645C466.848,418.645 476.512,415.191 484.18,408.933L484.205,408.92C488.859,405.086 492.755,400.236 495.558,394.442L495.57,394.417C498.18,389.005 499.552,383.334 499.783,377.675C499.955,374 503.053,371.134 506.752,371.306C510.427,371.466 513.267,374.575 513.108,378.25C512.789,385.672 510.989,393.167 507.572,400.234L507.572,400.222C504.828,405.942 501.216,410.977 496.978,415.275C504.841,426.567 517.922,433.684 532.069,433.672C534.689,433.672 537.359,433.428 540.042,432.913C550.342,430.978 559.027,425.527 565.2,418.031C571.361,410.522 574.95,400.981 574.95,390.913L574.938,390.008L574.938,389.958C574.889,387.692 574.656,385.317 574.216,382.927C573.15,377.256 570.981,372.111 568.006,367.567C563.695,363.77 558.906,358.811 554.388,353.298C549.573,347.42 545.141,340.989 542.164,334.511C540.205,330.175 538.808,325.791 538.783,321.173C538.783,319.128 539.064,317.009 539.836,314.977C540.583,312.906 541.808,310.947 543.448,309.33C546.045,306.745 550.258,306.745 552.867,309.33C555.464,311.95 555.464,316.188 552.867,318.773L552.364,319.57L552.108,321.175C552.083,322.853 552.781,325.695 554.288,328.964C555.781,332.223 557.998,335.884 560.608,339.497C565.777,346.736 572.477,353.841 577.522,358.175L578.208,358.764L578.711,359.511C582.839,365.659 585.864,372.739 587.32,380.467L587.32,380.48L587.798,383.786L589.795,383.872C598.247,383.859 606.758,381.361 614.242,376.106C620.195,371.917 624.727,366.541 627.789,360.502C630.863,354.452 632.467,347.764 632.467,341.028C632.467,334.72 631.045,328.388 628.205,322.497C625.57,323.342 622.9,324.016 620.194,324.481C616.569,325.13 613.127,322.667 612.478,319.044C611.864,315.406 614.316,311.977 617.941,311.339C629.747,309.306 640.563,302.423 647.25,291.375C651.488,284.431 653.484,276.788 653.484,269.231C653.484,258.097 649.184,247.209 641.175,239.138L641.156,239.13ZM335.606,188.252C341.975,180.719 350.427,175.366 359.514,171.862C368.639,168.359 378.413,166.681 387.795,166.681C396.92,166.694 405.689,168.237 413.136,171.692C416.467,173.209 417.925,177.191 416.381,180.534C414.85,183.867 410.894,185.336 407.527,183.794C402.383,181.381 395.339,179.997 387.795,179.997C380.03,179.997 371.752,181.428 364.316,184.32C356.881,187.173 350.353,191.436 345.759,196.85C343.408,199.667 339.183,200.034 336.366,197.634C333.561,195.258 333.206,191.056 335.606,188.252ZM487.383,345.931C479.63,345.931 472.598,345.05 466.181,343.569C466.353,345.405 466.475,347.45 466.475,349.619C466.475,353.967 465.997,358.937 464.638,364.156C463.266,369.361 460.952,374.836 457.302,380.091C455.208,383.128 451.055,383.875 448.03,381.78C444.992,379.684 444.258,375.545 446.327,372.495C449.02,368.612 450.698,364.644 451.728,360.737C452.758,356.831 453.138,353.033 453.138,349.617C453.15,344.902 452.427,341.019 451.912,338.802C448.655,337.331 445.653,335.678 442.85,333.828C431.68,326.602 424.209,317.061 419.517,307.984C416.37,301.897 414.458,296.019 413.43,290.911C412.842,287.995 412.548,285.352 412.548,282.948C412.548,279.25 415.537,276.261 419.223,276.261C422.909,276.261 425.898,279.25 425.898,282.948C425.886,284.883 426.303,288.13 427.356,291.817C428.409,295.516 430.087,299.717 432.512,303.942C437.375,312.442 445.103,320.955 457.033,326.48C465.006,330.178 474.927,332.578 487.383,332.578C491.069,332.578 494.058,335.567 494.058,339.253C494.058,342.944 491.07,345.931 487.383,345.931ZM534.342,297.233C532.97,300.639 529.088,302.305 525.658,300.944C522.241,299.572 520.6,295.714 521.947,292.297L521.947,292.284L521.984,292.186L522.181,291.598L522.867,289.198C523.37,287.092 523.884,284.116 523.884,280.845L523.872,280.38C514.711,283.491 506.211,284.886 498.384,284.886C486.553,284.911 476.314,281.666 467.984,276.742C459.644,271.82 453.153,265.303 448.302,258.677C442.791,251.169 435.564,244.433 427.284,239.669C418.981,234.891 409.697,232.05 399.837,232.025C391.203,232.05 382.017,234.205 372.427,239.472C363.327,244.469 357.472,251.119 353.688,258.419C349.928,265.731 348.336,273.716 348.347,280.992C348.322,287.728 349.744,293.827 351.592,297.673C353.172,301.005 351.739,304.973 348.42,306.553C345.102,308.134 341.12,306.7 339.541,303.381C336.638,297.231 335.022,289.491 334.997,280.992C335.009,272.541 336.688,263.305 340.816,254.475C332.537,256.35 324.845,257.183 317.839,257.183C314.055,257.183 310.489,256.937 307.097,256.497L305.859,258.995L305.847,259.019L305.748,259.119L305.394,259.572L303.972,261.506C302.759,263.247 301.081,265.781 299.256,269.014C295.619,275.42 291.455,284.459 289.433,294.611C288.711,298.225 285.208,300.589 281.594,299.853C277.981,299.131 275.628,295.628 276.377,291.991C278.777,279.95 283.519,269.711 287.645,262.423C289.8,258.652 291.773,255.664 293.217,253.63C287.78,252.002 283.077,250.005 279.231,247.97C270.45,243.303 265.88,238.625 265.489,238.245C262.941,235.587 263.014,231.373 265.659,228.814C268.317,226.267 272.519,226.341 275.078,228.961L275.153,229.034L275.544,229.414L277.455,231.017C279.192,232.389 281.877,234.277 285.464,236.186C292.666,239.983 303.42,243.83 317.836,243.855C327.964,243.855 339.906,241.92 353.783,236.58C357.298,233.309 361.352,230.322 366.006,227.773C377.422,221.516 388.922,218.698 399.834,218.698C412.303,218.698 423.902,222.325 433.945,228.105C443.989,233.911 452.502,241.859 459.053,250.8C463.034,256.2 468.264,261.431 474.744,265.239C481.259,269.061 488.963,271.548 498.381,271.559C504.836,271.559 512.111,270.359 520.342,267.469C518.334,264.247 515.345,261.136 510.422,258.319C507.213,256.494 506.073,252.428 507.886,249.231C509.711,246.009 513.766,244.906 516.973,246.695C524.861,251.142 530.141,257.033 533.202,263.194C536.3,269.33 537.219,275.552 537.219,280.844C537.183,290.081 534.525,296.756 534.342,297.233ZM531.844,215.528C516.264,215.528 502.633,211.327 491.609,204.97C490.055,207.127 487.972,209.833 485.289,212.772C479.252,219.398 470.383,227.177 458.516,231.437C455.025,232.662 451.228,230.875 449.991,227.397C448.753,223.917 450.578,220.109 454.02,218.884C462.778,215.761 470.102,209.625 475.173,204.077C477.525,201.541 479.35,199.141 480.673,197.303C474.095,191.744 468.903,185.411 465.339,178.895C461.959,172.648 459.998,166.206 459.975,159.947C459.975,156.273 462.964,153.284 466.65,153.284C470.325,153.284 473.312,156.273 473.312,159.947C473.287,163.316 474.464,167.811 477.059,172.527C479.619,177.253 483.514,182.177 488.609,186.587C498.8,195.419 513.509,202.178 531.845,202.178C535.531,202.178 538.508,205.18 538.508,208.866C538.506,212.539 535.53,215.528 531.844,215.528ZM584.411,309.433C582.072,312.25 577.858,312.666 575.017,310.302C572.177,307.962 571.784,303.75 574.111,300.92C581.386,292.089 584.069,283.197 584.092,274.686C584.117,266.933 581.741,259.448 578.017,253.142C574.342,246.845 569.261,241.8 564.373,238.995C561.091,237.109 558.005,236.264 555.555,236.264C551.867,236.264 548.892,233.289 548.892,229.602C548.892,225.916 551.869,222.927 555.555,222.927C559.608,222.927 563.577,223.919 567.35,225.584C571.109,227.227 574.663,229.566 577.969,232.42C584.57,238.127 590.18,245.892 593.708,254.994C596.034,261.067 597.455,267.731 597.455,274.688C597.467,286.125 593.561,298.372 584.411,309.433Z" style="fill:rgb(140,210,244);fill-rule:nonzero;"/>
        <path d="M269.467,643.531L269.922,643.936C269.909,643.923 269.909,643.923 269.897,643.911L269.467,643.531Z" style="fill:rgb(140,210,244);fill-rule:nonzero;"/>
        <path d="M669.842,104.022C620.223,46.003 545.598,6.492 449.978,0.722C442.2,0.244 434.459,0 426.792,0C346.372,0 272.394,26.113 218.161,74.052C163.891,121.867 130.098,191.877 130.22,275.727C130.22,277.625 130.233,279.523 130.269,281.434L130.184,291.55L61.155,413.453C57.444,420.03 55.569,427.367 55.569,434.705C55.569,440.827 56.869,446.977 59.5,452.708C65.073,464.87 76.034,473.616 89.017,476.628L88.992,476.738L120.739,485.483L133.281,606.456L133.38,606.444C134.263,624.069 142.125,640.616 155.477,652.227C167.345,662.564 182.495,668.173 198.075,668.173C199.653,668.173 201.209,668.027 202.778,667.917L238.75,670.77L240.552,670.575L241.127,670.55C242.509,670.55 243.797,671.041 244.789,671.934L244.848,671.997C245.989,673.025 246.662,674.531 246.662,676.075L246.662,800L582.537,800L582.537,709.894C582.5,701.711 584.13,685.533 587.339,669.928C588.931,662.103 590.902,654.3 593.133,647.553C595.338,640.817 597.886,635.084 600.016,631.741C622.356,595.731 653.944,566.191 682.872,524.413C711.766,482.672 736.395,428.523 743.144,346.364C744.002,336.064 744.431,325.763 744.431,315.513C744.431,237.623 719.544,161.991 669.842,104.022ZM705.642,343.225C699.114,419.592 677.753,465.287 651.884,503.073C626.055,540.822 594.113,570.498 568.109,611.788C563.578,619.088 560.258,627.172 557.405,635.769C553.167,648.642 550.142,662.678 548.072,675.747C546.014,688.852 544.925,700.733 544.913,709.894L544.913,762.375L284.287,762.375L284.287,676.077C284.287,663.816 279.07,652.144 269.931,643.952C261.958,636.786 251.67,632.916 241.125,632.916C240.353,632.916 239.606,633 238.847,633.05L202.913,630.184L201.148,630.38L198.075,630.552C191.534,630.552 185.166,628.188 180.18,623.852C174.423,618.842 171.017,611.641 170.797,603.986L170.786,603.277L155.525,456.056L98.327,440.281L97.641,440.147C95.902,439.803 94.445,438.652 93.697,437.034L93.194,434.708L93.905,431.989L167.734,301.609L167.894,281.241L167.894,280.97C167.858,279.208 167.845,277.467 167.845,275.73C167.969,201.9 196.664,143.452 243.084,102.238C289.553,61.12 354.444,37.628 426.792,37.628C433.688,37.628 440.645,37.848 447.652,38.278L448.814,19.502L447.663,38.278C534.292,43.728 598.056,78.292 641.278,128.52C684.428,178.786 706.806,245.548 706.806,315.511C706.806,324.706 706.427,333.953 705.642,343.225Z" style="fill:rgb(140,210,244);fill-rule:nonzero;"/>
    </g>
</svg>
