<?xml version="1.0" encoding="UTF-8" standalone="no"?>
<!DOCTYPE svg PUBLIC "-//W3C//DTD SVG 1.1//EN" "http://www.w3.org/Graphics/SVG/1.1/DTD/svg11.dtd">
<svg width="100%" height="100%" viewBox="0 0 200 200" version="1.1" xmlns="http://www.w3.org/2000/svg" xmlns:xlink="http://www.w3.org/1999/xlink" xml:space="preserve" xmlns:serif="http://www.serif.com/" style="fill-rule:evenodd;clip-rule:evenodd;stroke-linejoin:round;stroke-miterlimit:2;">
    <g transform="matrix(0.25,0,0,0.25,100,100)">
        <g id="book-svgrepo-com.svg" transform="matrix(1,0,0,1,-400,-400)">
            <path d="M233.333,233.333C233.333,214.924 248.257,200 266.667,200L533.333,200C551.743,200 566.667,214.924 566.667,233.333C566.667,251.743 551.743,266.667 533.333,266.667L266.667,266.667C248.257,266.667 233.333,251.743 233.333,233.333Z" style="fill:rgb(255,0,0);fill-rule:nonzero;"/>
            <path d="M266.667,300C248.257,300 233.333,314.924 233.333,333.333C233.333,351.743 248.257,366.667 266.667,366.667L433.333,366.667C451.743,366.667 466.667,351.743 466.667,333.333C466.667,314.924 451.743,300 433.333,300L266.667,300Z" style="fill:rgb(255,0,0);fill-rule:nonzero;"/>
            <path d="M233.333,766.667L633.333,766.667C688.563,766.667 733.333,721.897 733.333,666.667L733.333,133.333C733.333,78.105 688.563,33.333 633.333,33.333L233.333,33.333C141.286,33.333 66.667,107.953 66.667,200L66.667,600C66.667,690.183 142.501,766.667 233.333,766.667ZM133.333,200C133.333,144.772 178.105,100 233.333,100L633.333,100C651.743,100 666.667,114.924 666.667,133.333L666.667,472.357C656.24,468.673 645.02,466.667 633.333,466.667L233.333,466.667C195.813,466.667 161.189,479.063 133.333,499.987L133.333,200ZM666.667,566.667C666.667,548.257 651.743,533.333 633.333,533.333L233.333,533.333C183.783,533.333 134.716,568.44 134.716,616.667C134.716,663.873 183.783,700 233.333,700L633.333,700C651.743,700 666.667,685.077 666.667,666.667L666.667,566.667Z" style="fill:rgb(255,0,0);"/>
        </g>
        <g id="book-svgrepo-com.svg1" serif:id="book-svgrepo-com.svg">
        </g>
    </g>
</svg>
