<?xml version="1.0" encoding="UTF-8" standalone="no"?>
<!DOCTYPE svg PUBLIC "-//W3C//DTD SVG 1.1//EN" "http://www.w3.org/Graphics/SVG/1.1/DTD/svg11.dtd">
<svg width="100%" height="100%" viewBox="0 0 200 200" version="1.1" xmlns="http://www.w3.org/2000/svg" xmlns:xlink="http://www.w3.org/1999/xlink" xml:space="preserve" xmlns:serif="http://www.serif.com/" style="fill-rule:evenodd;clip-rule:evenodd;stroke-linejoin:round;stroke-miterlimit:2;">
    <g transform="matrix(0.25,0,0,0.25,100,100)">
        <g id="community-group-leader-2-svgrepo-com.svg" transform="matrix(1,0,0,1,-400,-400)">
            <g>
                <path d="M568.75,281.25L518.75,281.25L518.75,456.25L456.25,456.25L456.25,743.75L381.25,743.75L381.25,456.25L318.75,456.25L318.75,281.25L268.75,281.25L268.75,506.25L331.25,506.25L331.25,793.75L506.25,793.75L506.25,506.25L568.75,506.25L568.75,281.25Z" style="fill:rgb(255,0,0);fill-rule:nonzero;"/>
                <path d="M331.25,93.75C331.25,141.875 370.625,181.25 418.75,181.25C466.875,181.25 506.25,141.875 506.25,93.75C506.25,45.625 466.875,6.25 418.75,6.25C370.625,6.25 331.25,45.625 331.25,93.75ZM456.25,93.75C456.25,114.375 439.375,131.25 418.75,131.25C398.125,131.25 381.25,114.375 381.25,93.75C381.25,73.125 398.125,56.25 418.75,56.25C439.375,56.25 456.25,73.125 456.25,93.75Z" style="fill:rgb(255,0,0);fill-rule:nonzero;"/>
                <path d="M118.75,156.25C118.75,204.375 158.125,243.75 206.25,243.75C254.375,243.75 293.75,204.375 293.75,156.25C293.75,108.125 254.375,68.75 206.25,68.75C158.125,68.75 118.75,108.125 118.75,156.25ZM243.75,156.25C243.75,176.875 226.875,193.75 206.25,193.75C185.625,193.75 168.75,176.875 168.75,156.25C168.75,135.625 185.625,118.75 206.25,118.75C226.875,118.75 243.75,135.625 243.75,156.25Z" style="fill:rgb(255,0,0);fill-rule:nonzero;"/>
                <path d="M706.25,518.75L643.75,518.75L643.75,743.75L543.75,743.75L543.75,793.75L693.75,793.75L693.75,568.75L756.25,568.75L756.25,318.75L706.25,318.75L706.25,518.75Z" style="fill:rgb(255,0,0);fill-rule:nonzero;"/>
                <path d="M543.75,156.25C543.75,204.375 583.125,243.75 631.25,243.75C679.375,243.75 718.75,204.375 718.75,156.25C718.75,108.125 679.375,68.75 631.25,68.75C583.125,68.75 543.75,108.125 543.75,156.25ZM631.25,118.75C651.875,118.75 668.75,135.625 668.75,156.25C668.75,176.875 651.875,193.75 631.25,193.75C610.625,193.75 593.75,176.875 593.75,156.25C593.75,135.625 610.625,118.75 631.25,118.75Z" style="fill:rgb(255,0,0);fill-rule:nonzero;"/>
                <path d="M193.75,518.75L131.25,518.75L131.25,318.75L81.25,318.75L81.25,568.75L143.75,568.75L143.75,793.75L293.75,793.75L293.75,743.75L193.75,743.75L193.75,518.75Z" style="fill:rgb(255,0,0);fill-rule:nonzero;"/>
            </g>
        </g>
        <g id="community-group-leader-2-svgrepo-com.svg1" serif:id="community-group-leader-2-svgrepo-com.svg">
        </g>
    </g>
</svg>
